<?xml version="1.0" encoding="utf-8"?>
<!-- Generator: Adobe Illustrator 27.0.0, SVG Export Plug-In . SVG Version: 6.00 Build 0)  -->
<svg version="1.0" id="Layer_2" xmlns="http://www.w3.org/2000/svg" xmlns:xlink="http://www.w3.org/1999/xlink" x="0px" y="0px"
	 viewBox="0 0 245.96 166.27" style="enable-background:new 0 0 245.96 166.27;" xml:space="preserve">
<style type="text/css">
	.st0{fill:#0C559C;stroke:#6D6E71;stroke-miterlimit:10;}
	.st1{fill:#D63A28;stroke:#6D6E71;stroke-miterlimit:10;}
	.st2{fill:#0C559C;stroke:#2E3192;stroke-miterlimit:10;}
	.st3{fill:#FFFFFF;stroke:#2E3192;stroke-miterlimit:10;}
	.st4{stroke:#000000;stroke-miterlimit:10;}
	.st5{fill:#FFFFFF;stroke:#ABABAB;stroke-miterlimit:10;}
	.st6{fill:#0C559C;stroke:#ABABAB;stroke-miterlimit:10;}
	.st7{fill:none;}
	.st8{fill:#D63A28;}
	.st9{fill:#FFFFFF;}
</style>
<g>
	<polygon class="st0" points="93.84,20.5 91.5,52.5 111.5,52.5 109.16,20.5 	"/>
	<polygon class="st1" points="108.5,11.5 94.5,11.5 93.84,20.5 109.16,20.5 	"/>
	<g>
		<path class="st2" d="M152.06,78.29l-95.45,2.4c-0.97,0.02-1.78-0.75-1.8-1.72l-0.59-23.47c-0.02-0.97,0.75-1.78,1.72-1.8
			l95.45-2.4c0.97-0.02,1.78,0.75,1.8,1.72l0.59,23.47C153.8,77.46,153.03,78.27,152.06,78.29z"/>
		<rect x="61.47" y="60.44" transform="matrix(0.9997 -0.0252 0.0252 0.9997 -1.625 1.6927)" class="st3" width="10" height="10"/>
		<rect x="79.47" y="59.99" transform="matrix(0.9997 -0.0252 0.0252 0.9997 -1.6079 2.1451)" class="st3" width="10" height="10"/>
		<rect x="97.46" y="59.54" transform="matrix(0.9997 -0.0252 0.0252 0.9997 -1.5909 2.5976)" class="st3" width="10" height="10"/>
		<rect x="115.46" y="59.09" transform="matrix(0.9997 -0.0252 0.0252 0.9997 -1.5738 3.05)" class="st3" width="10" height="10"/>
		<path class="st3" d="M146,78.45l-10.34,0.26c-1.55,0.04-2.86-1.2-2.9-2.75l-0.39-15.34c-0.04-1.55,1.2-2.86,2.75-2.9l10.34-0.26
			c1.55-0.04,2.86,1.2,2.9,2.75l0.39,15.34C148.79,77.11,147.55,78.41,146,78.45z"/>
		<path class="st4" d="M141.94,77.85L141.94,77.85c-2.13,0.05-3.92-1.65-3.97-3.78l-0.16-6.2c-0.05-2.13,1.65-3.92,3.78-3.97h0
			c2.13-0.05,3.92,1.65,3.97,3.78l0.16,6.2C145.76,76.01,144.07,77.8,141.94,77.85z"/>
	</g>
	<path class="st5" d="M239.21,87.48c1.63-2.57,4.73-9.17-5.71-9.98L12,80c0,0-1.08,4.56-1.22,10.93h2.61
		C13.4,90.93,209.74,85.02,239.21,87.48z"/>
	<path class="st5" d="M11.93,103.36c1.75,7.88,5.82,15.97,14.57,21.14c0,0,23,14,27,33h99.76c0,0,25.24-23,51.24-30
		c0,0,18.74-10.99,28.69-26.74l-208.37,2.43C24.81,103.19,17.61,103.71,11.93,103.36z"/>
	<path class="st6" d="M239.21,87.48C209.74,85.02,13.4,90.93,13.4,90.93h-2.61c-0.08,3.71,0.17,8.04,1.15,12.44
		c5.67,0.35,12.88-0.17,12.88-0.17l208.37-2.43c2.42-3.84,4.33-7.95,5.31-12.26C238.5,88.5,238.81,88.11,239.21,87.48z"/>
	<circle class="st4" cx="80.5" cy="144.5" r="9"/>
	<circle class="st4" cx="107.5" cy="144.5" r="9"/>
	<circle cx="133.5" cy="144.5" r="9"/>
	<path d="M212.09,117.82c-1.07-0.53-2.01-1.23-2.76-2.07c-1.36-1.53-1.92-3.32-1.57-5.05c0.05-0.27,0.32-0.45,0.59-0.39
		c0.27,0.05,0.45,0.32,0.39,0.59c-0.28,1.41,0.19,2.9,1.34,4.19c1.19,1.33,2.94,2.28,4.93,2.68c0.27,0.06,0.45,0.32,0.39,0.59
		c-0.05,0.27-0.32,0.45-0.59,0.39C213.85,118.55,212.93,118.23,212.09,117.82z"/>
</g>
<g>
	<path class="st7" d="M35.24,111.24c1.1,0.89,2.49,1.42,4.01,1.42c1.38,0,2.66-0.44,3.71-1.19l-3.97-3.97L35.24,111.24z"/>
	<path class="st7" d="M34.03,102.54c-0.75,1.05-1.19,2.33-1.19,3.71c0,1.24,0.36,2.4,0.98,3.39l3.65-3.65L34.03,102.54z"/>
	<path class="st7" d="M44.24,102.24l-3.75,3.75l3.97,3.97c0.75-1.05,1.19-2.33,1.19-3.71C45.66,104.73,45.13,103.34,44.24,102.24z"
		/>
	<path class="st7" d="M42.64,100.82c-0.98-0.62-2.14-0.98-3.39-0.98c-1.38,0-2.66,0.44-3.71,1.19l3.44,3.44L42.64,100.82z"/>
	<path class="st8" d="M45.66,106.25c0,1.38-0.44,2.66-1.19,3.71l3.81,3.81c1.7-2.04,2.73-4.66,2.73-7.51c0-2.99-1.13-5.72-2.97-7.8
		l-3.79,3.79C45.13,103.34,45.66,104.73,45.66,106.25z"/>
	<path class="st8" d="M39.25,99.84c1.24,0,2.4,0.36,3.39,0.98l3.83-3.83c-1.99-1.56-4.5-2.49-7.22-2.49c-2.86,0-5.48,1.02-7.51,2.73
		l3.81,3.81C36.59,100.29,37.87,99.84,39.25,99.84z"/>
	<path class="st8" d="M32.84,106.25c0-1.38,0.44-2.66,1.19-3.71l-3.81-3.81c-1.7,2.04-2.73,4.66-2.73,7.51
		c0,2.72,0.93,5.22,2.49,7.22l3.83-3.83C33.2,108.65,32.84,107.49,32.84,106.25z"/>
	<path class="st8" d="M39.25,112.66c-1.52,0-2.91-0.53-4.01-1.42l-3.79,3.79c2.08,1.85,4.81,2.97,7.8,2.97
		c2.86,0,5.48-1.02,7.51-2.73l-3.81-3.81C41.91,112.21,40.63,112.66,39.25,112.66z"/>
	<path class="st9" d="M44.24,102.24l3.79-3.79c-0.47-0.53-1-1.02-1.56-1.46l-3.83,3.83C43.25,101.2,43.79,101.68,44.24,102.24z"/>
	<path class="st9" d="M33.82,109.64l-3.83,3.83c0.44,0.56,0.93,1.09,1.46,1.56l3.79-3.79C34.68,110.79,34.2,110.25,33.82,109.64z"/>
	<path class="st9" d="M35.54,101.03l-3.81-3.81c-0.55,0.46-1.05,0.96-1.51,1.51l3.81,3.81C34.45,101.96,34.96,101.45,35.54,101.03z"
		/>
	<path class="st9" d="M48.27,113.76l-3.81-3.81c-0.42,0.58-0.93,1.09-1.51,1.51l3.81,3.81C47.31,114.82,47.82,114.31,48.27,113.76z"
		/>
</g>
<g>
	<path class="st7" d="M62.92,110.92c1.1,0.89,2.49,1.42,4.01,1.42c1.38,0,2.66-0.44,3.71-1.19l-3.97-3.97L62.92,110.92z"/>
	<path class="st7" d="M61.72,102.23c-0.75,1.05-1.19,2.33-1.19,3.71c0,1.24,0.36,2.4,0.98,3.39l3.65-3.65L61.72,102.23z"/>
	<path class="st7" d="M71.92,101.92l-3.75,3.75l3.97,3.97c0.75-1.05,1.19-2.33,1.19-3.71C73.34,104.42,72.81,103.02,71.92,101.92z"
		/>
	<path class="st7" d="M70.32,100.5c-0.98-0.62-2.14-0.98-3.39-0.98c-1.38,0-2.66,0.44-3.71,1.19l3.44,3.44L70.32,100.5z"/>
	<path class="st8" d="M73.34,105.93c0,1.38-0.44,2.66-1.19,3.71l3.81,3.81c1.7-2.04,2.73-4.66,2.73-7.51c0-2.99-1.13-5.72-2.97-7.8
		l-3.79,3.79C72.81,103.02,73.34,104.42,73.34,105.93z"/>
	<path class="st8" d="M66.93,99.53c1.24,0,2.4,0.36,3.39,0.98l3.83-3.83c-1.99-1.56-4.5-2.49-7.22-2.49c-2.86,0-5.48,1.02-7.51,2.73
		l3.81,3.81C64.27,99.97,65.55,99.53,66.93,99.53z"/>
	<path class="st8" d="M60.53,105.93c0-1.38,0.44-2.66,1.19-3.71l-3.81-3.81c-1.7,2.04-2.73,4.66-2.73,7.51
		c0,2.72,0.93,5.22,2.49,7.22l3.83-3.83C60.89,108.34,60.53,107.18,60.53,105.93z"/>
	<path class="st8" d="M66.93,112.34c-1.52,0-2.91-0.53-4.01-1.42l-3.79,3.79c2.08,1.85,4.81,2.97,7.8,2.97
		c2.86,0,5.48-1.02,7.51-2.73l-3.81-3.81C69.59,111.9,68.32,112.34,66.93,112.34z"/>
	<path class="st9" d="M71.92,101.92l3.79-3.79c-0.47-0.53-1-1.02-1.56-1.46l-3.83,3.83C70.93,100.89,71.47,101.36,71.92,101.92z"/>
	<path class="st9" d="M61.5,109.32l-3.83,3.83c0.44,0.56,0.93,1.09,1.46,1.56l3.79-3.79C62.36,110.47,61.89,109.93,61.5,109.32z"/>
	<path class="st9" d="M63.23,100.72l-3.81-3.81c-0.55,0.46-1.05,0.96-1.51,1.51l3.81,3.81C62.13,101.64,62.64,101.13,63.23,100.72z"
		/>
	<path class="st9" d="M75.96,113.45l-3.81-3.81c-0.42,0.58-0.93,1.09-1.51,1.51l3.81,3.81C75,114.5,75.5,114,75.96,113.45z"/>
</g>
<g>
	<path class="st7" d="M89.92,109.92c1.1,0.89,2.49,1.42,4.01,1.42c1.38,0,2.66-0.44,3.71-1.19l-3.97-3.97L89.92,109.92z"/>
	<path class="st7" d="M88.72,101.23c-0.75,1.05-1.19,2.33-1.19,3.71c0,1.24,0.36,2.4,0.98,3.39l3.65-3.65L88.72,101.23z"/>
	<path class="st7" d="M98.92,100.92l-3.75,3.75l3.97,3.97c0.75-1.05,1.19-2.33,1.19-3.71C100.34,103.42,99.81,102.02,98.92,100.92z"
		/>
	<path class="st7" d="M97.32,99.5c-0.98-0.62-2.14-0.98-3.39-0.98c-1.38,0-2.66,0.44-3.71,1.19l3.44,3.44L97.32,99.5z"/>
	<path class="st8" d="M100.34,104.93c0,1.38-0.44,2.66-1.19,3.71l3.81,3.81c1.7-2.04,2.73-4.66,2.73-7.51c0-2.99-1.13-5.72-2.97-7.8
		l-3.79,3.79C99.81,102.02,100.34,103.42,100.34,104.93z"/>
	<path class="st8" d="M93.93,98.53c1.24,0,2.4,0.36,3.39,0.98l3.83-3.83c-1.99-1.56-4.5-2.49-7.22-2.49c-2.86,0-5.48,1.02-7.51,2.73
		l3.81,3.81C91.27,98.97,92.55,98.53,93.93,98.53z"/>
	<path class="st8" d="M87.53,104.93c0-1.38,0.44-2.66,1.19-3.71l-3.81-3.81c-1.7,2.04-2.73,4.66-2.73,7.51
		c0,2.72,0.93,5.22,2.49,7.22l3.83-3.83C87.89,107.34,87.53,106.18,87.53,104.93z"/>
	<path class="st8" d="M93.93,111.34c-1.52,0-2.91-0.53-4.01-1.42l-3.79,3.79c2.08,1.85,4.81,2.97,7.8,2.97
		c2.86,0,5.48-1.02,7.51-2.73l-3.81-3.81C96.59,110.9,95.32,111.34,93.93,111.34z"/>
	<path class="st9" d="M98.92,100.92l3.79-3.79c-0.47-0.53-1-1.02-1.56-1.46l-3.83,3.83C97.93,99.89,98.47,100.36,98.92,100.92z"/>
	<path class="st9" d="M88.5,108.32l-3.83,3.83c0.44,0.56,0.93,1.09,1.46,1.56l3.79-3.79C89.36,109.47,88.89,108.93,88.5,108.32z"/>
	<path class="st9" d="M90.23,99.72l-3.81-3.81c-0.55,0.46-1.05,0.96-1.51,1.51l3.81,3.81C89.13,100.64,89.64,100.13,90.23,99.72z"/>
	<path class="st9" d="M102.96,112.45l-3.81-3.81c-0.42,0.58-0.93,1.09-1.51,1.51l3.81,3.81C102,113.5,102.5,113,102.96,112.45z"/>
</g>
</svg>
