<?xml version="1.0" encoding="utf-8"?>
<!-- Generator: Adobe Illustrator 27.0.0, SVG Export Plug-In . SVG Version: 6.00 Build 0)  -->
<svg version="1.1" id="Layer_1" xmlns="http://www.w3.org/2000/svg" xmlns:xlink="http://www.w3.org/1999/xlink" x="0px" y="0px"
	 viewBox="0 0 41.61 42.65" style="enable-background:new 0 0 41.61 42.65;" xml:space="preserve">
<style type="text/css">
	.st0{fill:#ED1C24;}
	.st1{fill:#FFFFFF;}
</style>
<circle class="st0" cx="20.96" cy="21.32" r="19.66"/>
<path class="st1" d="M32.72,12.74c-2.53-2-7.75,0.4-11.67,5.36c-0.03,0.04-0.06,0.08-0.08,0.11c-0.03-0.04-0.05-0.08-0.08-0.11
	c-3.92-4.96-9.15-7.35-11.67-5.36s-1.39,7.63,2.53,12.59c2.23,2.82,4.88,4.81,7.22,5.63c0.58,0.32,1.26,0.45,2.01,0.42
	c0.75,0.03,1.43-0.1,2.01-0.42c2.34-0.83,4.99-2.81,7.22-5.63C34.11,20.37,35.24,14.74,32.72,12.74z"/>
</svg>
