<?xml version="1.0" encoding="utf-8"?>
<!-- Generator: Adobe Illustrator 27.0.0, SVG Export Plug-In . SVG Version: 6.00 Build 0)  -->
<svg version="1.0" id="Layer_1" xmlns="http://www.w3.org/2000/svg" xmlns:xlink="http://www.w3.org/1999/xlink" x="0px" y="0px"
	 viewBox="0 0 278.28 186.89" style="enable-background:new 0 0 278.28 186.89;" xml:space="preserve">
<style type="text/css">
	.st0{fill:#F15A29;}
	.st1{fill:#FBB040;}
</style>
<path class="st0" d="M107.89,154.28c-1.51,0.13-2.75-1.37-2.61-3.14l7.21-88.92c0.13-3.93,2.43-7.96,3.96-11.46
	c0.34-0.78,0.33-3.02,0-3.8c-1.71-4.05-4.08-7.18-4.08-12.22c0-17.49,11.33-30.19,26.94-30.19c15.61,0,26.94,12.7,26.94,30.19
	c0,2.17-0.17,4.27-0.51,6.28c-0.12,0.69-0.01,1.4,0.3,2C169,48.95,169,55.25,169,57.99v0.93c0,0.11-0.01,0.22-0.02,0.33l-8.67,88.29
	c-0.13,1.37-1.08,2.44-2.26,2.54L107.89,154.28z M138.29,27.32c-0.07,0.04-0.13,0.07-0.2,0.11c-2.42,1.44-1.14,5.81,1.54,5.36
	l0.07-0.01c2.33-0.39,2.92-4.12,0.81-5.36c-0.07-0.04-0.14-0.08-0.21-0.12C139.66,26.97,138.92,26.98,138.29,27.32z M139.42,26.94
	C139.42,26.94,139.42,26.94,139.42,26.94L139.42,26.94z"/>
<g>
	<path class="st0" d="M95.3,180.9l-28.11-12.51c-0.01-0.01-0.03-0.01-0.04-0.01c-3.37,0.02-6.8-0.36-10.26-1.17
		c-26.97-6.33-39.48-28.37-32.64-57.49l3.54-15.08c6.66-28.35,26.73-42.52,52.66-37.42c0.05,0.01,0.1-0.02,0.11-0.06
		c5.11-13.5,18.88-20.89,33.59-17.43c16.02,3.76,25.28,18.63,21.53,34.59l-0.12,0.47l-26.26,99.41
		C107.71,180.27,101.04,183.46,95.3,180.9z"/>
	<path class="st1" d="M91.49,160.2l-12.95-5.76c-1.07-0.48-1.53-1.74-1.01-2.79h0c0.85-1.73-0.92-3.54-2.69-2.79
		c-4.39,1.88-9.37,2.36-14.79,1.08c-14.42-3.39-25-13.36-19.58-36.42l3.54-15.08c5.41-23.06,19.32-27.29,33.75-23.9
		c4.54,1.07,8.19,3.11,11.03,5.79c1.15,1.09,3.05,0.52,3.42-1.03l3.38-14.41c1.69-7.21,7.92-9.67,13.71-8.31
		c5.79,1.36,10.16,6.31,8.47,13.52l-23.44,88.74C94,160.07,92.66,160.72,91.49,160.2z M62.62,120.34
		c-1.75,7.43,3.24,11.25,7.06,12.15c3.82,0.9,10.1-0.28,11.84-7.71l4.39-18.69c1.64-6.99-3.58-10.76-7.3-11.63
		c-3.82-0.9-9.99,0.31-11.73,7.74L62.62,120.34z"/>
</g>
<g>
	<path class="st0" d="M216.65,170.15l-52.32,7.83l-26.73-103c-3.98-16.29,5.26-31.67,21.62-35.88c15.18-3.9,29.61,3.48,35.17,17.39
		c26.77-5.89,47.89,8.34,55.4,37.56l3.99,15.53c7.71,30-4.75,53.07-32.52,60.21c-0.11,0.03-0.22,0.06-0.34,0.09v0
		C218.41,169.7,218.41,169.7,216.65,170.15z"/>
	<path class="st1" d="M179.68,160.79c-1.61,0.29-3.16-0.75-3.51-2.36l-19.36-88.9c-1.91-7.43,2.51-12.64,8.47-14.18
		c5.96-1.53,12.46,0.87,14.37,8.3l3.43,13.35c0.57,2.21,3.25,3.02,4.97,1.52c2.73-2.38,6.12-4.21,10.26-5.28
		c14.85-3.82,29.34,0.25,35.44,24l3.99,15.53c6.11,23.74-4.62,34.3-19.47,38.12c-5.48,1.41-10.56,1.06-15.08-0.7
		c-2.4-0.94-4.85,1.22-4.1,3.69v0c0.53,1.75-0.59,3.57-2.39,3.89L179.68,160.79z M210.17,101.64c-1.97-7.65-8.37-8.76-12.31-7.75
		c-3.83,0.98-9.15,4.99-7.3,12.2l4.95,19.24c1.97,7.65,8.49,8.74,12.42,7.72c3.94-1.01,9.01-5.08,7.04-12.73L210.17,101.64z"/>
</g>
<path class="st1" d="M138.4,20.05c5.8,0,10.77,3.22,10.77,11.41c0,8.18-4.97,11.41-10.77,11.41c-5.8,0-10.77-3.22-10.77-11.41
	C127.63,23.28,132.6,20.05,138.4,20.05z M127.73,60.6c-0.07-8.35,10.31-12.22,16.1-12.22c5.8,0,8.08-1.78,8.08,6.78l-7.28,75.52
	l-22.64,1.94L127.73,60.6z"/>
</svg>
